<svg xmlns="http://www.w3.org/2000/svg" viewBox="0 0 601.35 177.03"><text transform="translate(319.35 142.52)" style="font-size:168.36009216308594px;fill:#ffb657;font-family:Ubuntu-Medium, Ubuntu;font-weight:500">mai</text><path d="M268.57,79.17H235.78V56.58h92.51V79.17H295.5v96.54H268.57Z" transform="translate(-115.65 -31.34)" style="fill:#f57b00"/><path d="M336.14,116.83c0-39.52,26.13-62.44,56.23-62.44a50.27,50.27,0,0,1,35.82,15.46L414,87.12c-6-5.56-12.41-9.48-21-9.48-16.34,0-29.23,14.41-29.23,38.29,0,24.49,11.39,38.72,28.8,38.72,9.78,0,17.48-4.82,23.31-11.14L430,160.42c-9.89,11.5-23.05,17.48-38.47,17.48C361.36,177.9,336.14,157,336.14,116.83Z" transform="translate(-115.65 -31.34)" style="fill:#f57b00"/><path d="M138.6,99.11a20.09,20.09,0,0,1-9.3,4.81H115.65V53H142.6V91A14.42,14.42,0,0,1,138.6,99.11Z" transform="translate(-115.65 -31.34)" style="fill:#f57b00"/><path d="M153.1,99.11a20.09,20.09,0,0,0,9.3,4.81h21.12a19.9,19.9,0,0,0,5.52-2,23.26,23.26,0,0,0,6-5C200.3,90.62,202.91,73,194,62a23.62,23.62,0,0,0-11-8,21.34,21.34,0,0,0-4.88-1H149.11V91A14.37,14.37,0,0,0,153.1,99.11Z" transform="translate(-115.65 -31.34)" style="fill:#f57b00"/><path d="M138.6,117.32a18.63,18.63,0,0,0-9.3-6.21H115.65V177H142.6V127.85S142.13,121.72,138.6,117.32Z" transform="translate(-115.65 -31.34)" style="fill:#f57b00"/><path d="M153.1,117.32a18.63,18.63,0,0,1,9.3-6.21c5-1.69,33.13,0,33.13,0a23.19,23.19,0,0,1,6.49,2,28.4,28.4,0,0,1,10,9c6.52,9.56,8.35,31.41-5,44.93-7.08,7.18-15.76,9.27-20,10H149.11V127.85S149.57,121.72,153.1,117.32Z" transform="translate(-115.65 -31.34)" style="fill:#f57b00"/></svg>